<?xml version="1.0" encoding="UTF-8" standalone="no"?>
<!-- Created with Inkscape (http://www.inkscape.org/) -->

<svg
   version="1.1"
   id="svg2"
   width="1504.6591"
   height="1493.0128"
   viewBox="0 0 150.46591 149.30128"
   sodipodi:docname="irsag.svg"
   inkscape:version="1.2.2 (732a01da63, 2022-12-09)"
   xmlns:inkscape="http://www.inkscape.org/namespaces/inkscape"
   xmlns:sodipodi="http://sodipodi.sourceforge.net/DTD/sodipodi-0.dtd"
   xmlns="http://www.w3.org/2000/svg"
   xmlns:svg="http://www.w3.org/2000/svg">
  <defs
     id="defs6">
    <inkscape:path-effect
       effect="bspline"
       id="path-effect465"
       is_visible="true"
       lpeversion="1"
       weight="33.333333"
       steps="2"
       helper_size="0"
       apply_no_weight="true"
       apply_with_weight="true"
       only_selected="false" />
    <linearGradient
       id="linearGradient5970"
       inkscape:swatch="solid">
      <stop
         style="stop-color:#000000;stop-opacity:1;"
         offset="0"
         id="stop5968" />
    </linearGradient>
  </defs>
  <sodipodi:namedview
     id="namedview4"
     pagecolor="#ffffff"
     bordercolor="#666666"
     borderopacity="1.0"
     inkscape:showpageshadow="2"
     inkscape:pageopacity="0.0"
     inkscape:pagecheckerboard="0"
     inkscape:deskcolor="#d1d1d1"
     showgrid="false"
     inkscape:zoom="0.22768391"
     inkscape:cx="-450.18552"
     inkscape:cy="599.51535"
     inkscape:window-width="1920"
     inkscape:window-height="1001"
     inkscape:window-x="-9"
     inkscape:window-y="-9"
     inkscape:window-maximized="1"
     inkscape:current-layer="g289" />
  <g
     inkscape:groupmode="layer"
     inkscape:label="Image"
     id="g8"
     transform="translate(-5.5139787,-4.3493602)">
    <g
       id="g289">
      <g
         id="g321">
        <rect
           id="rect222"
           width="146.1179"
           height="144.95328"
           x="7.6879787"
           y="6.5233603"
           style="fill:none;fill-opacity:1;stroke:#050b83;stroke-width:4.348;stroke-dasharray:none;stroke-opacity:1" />
        <path
           style="fill:none;stroke:#535784;stroke-width:1.505;stroke-linecap:butt;stroke-linejoin:miter;stroke-dasharray:none;stroke-opacity:1"
           d="M 65.218632,13.014539 64.830508,117.23846"
           id="path7141" />
        <path
           style="fill:none;stroke:#535784;stroke-width:1.505;stroke-linecap:butt;stroke-linejoin:miter;stroke-dasharray:none;stroke-opacity:1"
           d="M 90.231167,13.08259 89.843043,117.30651"
           id="path7141-6" />
        <path
           style="fill:none;stroke:#535784;stroke-width:1.31419;stroke-linecap:butt;stroke-linejoin:miter;stroke-dasharray:none;stroke-opacity:1"
           d="m 37.655268,89.704533 78.960362,0.39064"
           id="path7141-4" />
        <path
           style="fill:none;stroke:#535784;stroke-width:1.31419;stroke-linecap:butt;stroke-linejoin:miter;stroke-dasharray:none;stroke-opacity:1"
           d="m 37.655268,65.548237 78.960362,0.39064"
           id="path7141-4-3" />
        <path
           style="fill:none;stroke:#535784;stroke-width:1.31419;stroke-linecap:butt;stroke-linejoin:miter;stroke-dasharray:none;stroke-opacity:1"
           d="m 37.655268,40.842934 78.960362,0.39064"
           id="path7141-4-4" />
        <g
           aria-label="."
           transform="scale(1.0933061,0.91465695)"
           id="text1329"
           style="font-style:italic;font-size:128.348px;line-height:1.25;-inkscape-font-specification:'sans-serif Italic';letter-spacing:0px;word-spacing:0px;fill:#050b83;stroke-width:0.962611">
          <path
             d="m 83.892508,48.937116 q -6.674097,0 -6.674097,-6.674097 0,-4.235484 2.310264,-7.444184 2.438613,-3.2087 7.572533,-3.2087 2.823656,0 4.49218,1.796872 1.796872,1.668524 1.796872,5.005572 0,3.978788 -2.310264,7.315836 -2.310264,3.208701 -7.187488,3.208701 z"
             id="path301" />
        </g>
        <path
           style="fill:#050b83;fill-opacity:1;stroke:none;stroke-width:1px;stroke-linecap:butt;stroke-linejoin:miter;stroke-opacity:1"
           d="m 49.868105,83.294454 c 2.516274,-2.584899 7.548836,-7.754713 10.83144,-11.174569 3.282604,-3.419855 4.815217,-5.089717 6.816949,-6.794036 2.001731,-1.704318 4.472212,-3.442804 6.656952,-4.735299 2.18474,-1.292496 4.083353,-2.138866 6.279533,-2.859425 2.196179,-0.72056 4.689539,-1.315306 6.622549,-1.738487 1.93301,-0.423182 3.30549,-0.674803 4.540895,-0.777648 1.235405,-0.102844 2.333395,-0.05709 2.858907,0.03468 0.525512,0.09177 0.479758,0.229037 -3.271857,7.125945 -3.751616,6.896909 -11.208808,20.553178 -15.440742,28.262152 -4.231934,7.708974 -5.238428,9.470334 -5.878948,10.705714 -0.640521,1.23537 -0.91502,1.94449 -0.971892,2.52815 -0.05687,0.58366 0.103253,1.04116 0.435321,1.42981 0.332068,0.38865 0.835315,0.7089 1.388803,0.75975 0.553488,0.0509 1.157788,-0.16674 2.056245,-0.67788 0.898457,-0.51114 2.091358,-1.31584 3.7107,-2.5338 1.619342,-1.21796 3.665112,-2.84914 7.43304,-6.455533 3.767928,-3.606393 9.257882,-9.187847 12.006028,-11.9686 2.748147,-2.780753 2.753968,-2.76196 2.752622,-2.681907 -0.0013,0.08005 -0.0094,0.221589 -0.01752,1.044547 -0.0081,0.822959 -0.01617,2.32723 -0.02636,3.113654 -0.01018,0.786424 -0.02232,0.855175 -0.09106,0.974152 -0.06874,0.118977 -0.194094,0.288817 -0.869118,1.14919 -0.675024,0.860374 -1.899687,2.411256 -4.13616,4.810828 -2.236473,2.399571 -5.484697,5.647793 -8.08102,8.106869 -2.596323,2.45907 -4.540682,4.12893 -6.233385,5.43279 -1.692702,1.30385 -3.133816,2.24172 -4.883626,3.06522 -1.749811,0.8235 -3.808542,1.53261 -5.661271,1.92158 -1.852729,0.38896 -3.499718,0.45758 -5.146641,0.26332 -1.646922,-0.19426 -3.293909,-0.65175 -4.689474,-1.61214 -1.395565,-0.96039 -2.539307,-2.42438 -3.328809,-4.12858 -0.789502,-1.70419 -1.224123,-3.64855 -1.224332,-5.59319 -2.09e-4,-1.944626 0.434413,-3.888985 0.914782,-5.650468 0.480369,-1.761482 1.00649,-3.339845 2.619225,-6.771296 1.612735,-3.43145 4.311964,-8.715535 5.65799,-11.360301 1.346025,-2.644766 1.337451,-2.650485 1.314825,-2.64165 -0.02263,0.0088 -0.05837,0.03314 -1.18994,1.02858 -1.131568,0.99544 -3.358725,2.961849 -5.507537,4.778098 -2.148812,1.816249 -4.219205,3.482268 -5.335038,4.339509 -1.115834,0.857242 -1.277581,0.905766 -1.989286,1.099877 -0.711706,0.194112 -1.973351,0.533785 -2.636504,0.703537 -0.663153,0.169751 -0.728109,0.169384 -0.762481,0.151863 -0.03437,-0.01752 -0.03724,-0.05326 -0.03871,-0.07167 -0.0015,-0.01841 -0.0014,-0.01844 2.514908,-2.603338 z"
           id="path463"
           inkscape:path-effect="#path-effect465"
           inkscape:original-d="m 47.351831,85.879354 c 5.033561,-5.168813 10.066123,-10.338627 15.097685,-15.50944 1.533674,-1.668929 3.066287,-3.338791 4.597931,-5.009687 2.47158,-1.737556 4.942061,-3.476042 7.411591,-5.215564 1.899686,-0.845402 3.7983,-1.69177 5.69594,-2.539156 2.49446,-0.593769 4.98782,-1.188514 7.48022,-1.784272 1.37355,-0.250633 2.74603,-0.502256 4.11755,-0.754884 1.09904,0.04675 2.19703,0.0925 3.29404,0.137252 -0.0447,0.138254 -0.0905,0.275503 -0.13725,0.411755 -7.45649,13.657815 -14.91368,27.314085 -22.372023,40.969627 -1.005533,1.762432 -2.012025,3.523795 -3.019537,5.284185 -0.273509,0.71015 -0.548007,1.41927 -0.823511,2.1274 0.161131,0.45852 0.321254,0.91602 0.480381,1.37252 0.504267,0.32126 1.007513,0.64151 1.509769,0.96076 0.60532,-0.2166 1.209617,-0.4342 1.812925,-0.65279 1.19395,-0.80374 2.386852,-1.60844 3.578778,-2.41416 2.046858,-1.63025 4.092628,-3.26143 6.137438,-4.893643 5.49118,-5.58068 10.98113,-11.162137 16.4702,-16.744705 0.007,0.01983 0.0127,0.03866 0.0175,0.0565 -0.007,0.142536 -0.0152,0.284067 -0.0243,0.424601 -0.007,1.505329 -0.0152,3.009599 -0.0243,4.512899 -0.0111,0.06975 -0.0233,0.13849 -0.0364,0.206234 -0.12436,0.170844 -0.24972,0.340681 -0.37607,0.509521 -1.22372,1.551948 -2.44838,3.102833 -3.67407,4.652749 -3.24736,3.249355 -6.49558,6.49758 -9.74487,9.744864 -1.94344,1.67093 -3.8878,3.34079 -5.8332,5.00969 -1.44017,0.9389 -2.881283,1.87677 -4.323425,2.81366 -2.057817,0.71015 -4.116551,1.41926 -6.176326,2.1274 -1.646053,0.0696 -3.293041,0.13825 -4.941061,0.20588 -1.646053,-0.45652 -3.29304,-0.91402 -4.94106,-1.37252 -1.142787,-1.46305 -2.286528,-2.92704 -3.431292,-4.39205 -0.433639,-1.94344 -0.868261,-3.8878 -1.303891,-5.8332 0.435639,-1.943435 0.87026,-3.887795 1.303891,-5.833194 0.527142,-1.577426 1.053263,-3.155789 1.578394,-4.735183 2.700337,-5.283295 5.399566,-10.56738 8.097849,-15.852569 -0.0076,-0.0047 -0.01616,-0.01044 -0.02573,-0.01716 -0.03474,0.02531 -0.07049,0.04961 -0.107228,0.07291 -2.226246,1.967489 -4.453402,3.933899 -6.681604,5.899348 -2.069475,1.667086 -4.139868,3.333105 -6.211302,4.998157 -0.160756,0.04953 -0.322505,0.09805 -0.485258,0.145578 -1.260696,0.340687 -2.522341,0.680361 -3.785012,1.019041 -0.06396,6.23e-4 -0.128915,2.45e-4 -0.194873,-0.0011 -0.0019,-0.03474 -0.0047,-0.07048 -0.0086,-0.107228 z" />
        <text
           xml:space="preserve"
           style="font-style:normal;font-weight:normal;font-size:20.5203px;line-height:1.25;font-family:sans-serif;letter-spacing:0px;word-spacing:0px;fill:#050b83;fill-opacity:1;stroke:none;stroke-width:1.02601"
           x="17.05254"
           y="147.01842"
           id="text1851"
           transform="scale(1.0260147,0.97464491)"><tspan
             sodipodi:role="line"
             id="tspan1849"
             x="17.05254"
             y="147.01842"
             style="font-style:normal;font-variant:normal;font-weight:bold;font-stretch:normal;font-size:20.5203px;font-family:Arial;-inkscape-font-specification:'Arial Bold';fill:#050b83;fill-opacity:1;stroke-width:1.02601">IRSAG d.o.o.</tspan></text>
      </g>
    </g>
  </g>
</svg>
