<?xml version="1.0" encoding="UTF-8" standalone="no"?>
<!-- Created with Inkscape (http://www.inkscape.org/) -->

<svg
   version="1.1"
   id="svg824"
   width="1920"
   height="1080"
   viewBox="0 0 1920 1080"
   sodipodi:docname="manana.svg"
   inkscape:version="1.1.2 (b8e25be833, 2022-02-05)"
   xmlns:inkscape="http://www.inkscape.org/namespaces/inkscape"
   xmlns:sodipodi="http://sodipodi.sourceforge.net/DTD/sodipodi-0.dtd"
   xmlns="http://www.w3.org/2000/svg"
   xmlns:svg="http://www.w3.org/2000/svg">
  <defs
     id="defs828" />
  <sodipodi:namedview
     id="namedview826"
     pagecolor="#ffffff"
     bordercolor="#666666"
     borderopacity="1.0"
     inkscape:pageshadow="2"
     inkscape:pageopacity="0.0"
     inkscape:pagecheckerboard="0"
     showgrid="false"
     inkscape:zoom="0.3109375"
     inkscape:cx="1019.4975"
     inkscape:cy="1202.8141"
     inkscape:window-width="1920"
     inkscape:window-height="1017"
     inkscape:window-x="-8"
     inkscape:window-y="-8"
     inkscape:window-maximized="1"
     inkscape:current-layer="g830" />
  <g
     inkscape:groupmode="layer"
     inkscape:label="Image"
     id="g830">
    <path
       style="fill:#474747"
       d="m 1289.5142,830.597 c -13.4854,-2.906 -21.978,-13.4509 -24.1253,-29.9557 -2.6001,-19.9844 4.4631,-37.5454 17.8317,-44.3341 8.7895,-4.4634 16.2969,-5.1737 25.0301,-2.3682 7.9796,2.5633 11.2761,5.2494 11.2761,9.1878 0,3.1094 -1.1003,3.6147 -2.9687,1.3635 -2.1124,-2.5453 -11.7836,-5.539 -17.8188,-5.5158 -10.6306,0.041 -17.9586,5.5197 -22.2643,16.646 -1.8252,4.7164 -2.2589,7.8405 -2.2675,16.332 -0.012,12.0878 1.0691,16.7696 5.3738,23.2686 2.2087,3.3346 4.6244,5.4057 8.5384,7.3207 4.8209,2.3586 6.3183,2.6152 12.8233,2.1978 5.8567,-0.3759 8.504,-1.1155 12.9267,-3.6115 5.8767,-3.3166 7.3262,-2.9776 6.214,1.4536 -0.7495,2.9863 -8.2855,6.8022 -16.5166,8.3631 -6.3232,1.1992 -6.9451,1.1838 -14.0529,-0.3478 z m 51.762,-0.057 c -10.392,-2.7958 -14.6062,-12.0667 -9.7828,-21.5214 3.1363,-6.1478 13.6813,-9.9773 27.661,-10.0454 5.5291,-0.027 6.6333,-1.573 5.7701,-8.0795 -0.4803,-3.621 -1.5363,-6.1834 -3.4147,-8.2857 -2.3951,-2.6806 -3.4957,-3.0928 -9.2332,-3.4581 -5.508,-0.3508 -7.4621,0.011 -12.6527,2.3401 -3.3762,1.5151 -6.4083,2.4851 -6.738,2.1555 -0.3296,-0.3296 -0.3197,-1.7131 0.022,-3.0744 1.5554,-6.1972 22.4793,-9.343 31.4442,-4.7275 7.4018,3.8108 8.1269,6.6836 8.1528,32.3004 0.014,13.5344 -0.3574,21.9255 -0.9869,22.3146 -1.7806,1.1004 -4.9911,-0.5748 -4.9911,-2.6043 0,-2.6378 -2.6664,-3.5131 -4.8052,-1.5775 -2.6003,2.3532 -10.3593,5.6384 -13.1948,5.5868 -1.375,-0.025 -4.6378,-0.6207 -7.2506,-1.3236 z m 16.2506,-6.6967 c 5.8906,-3.5382 7.9235,-6.7334 7.964,-12.5179 0.024,-3.3738 -0.477,-5.5532 -1.4639,-6.3723 -2.2496,-1.867 -18.2451,-0.8915 -21.596,1.317 -6.7763,4.4663 -6.4487,14.6481 0.5959,18.5222 3.3451,1.8396 10.6536,1.3613 14.5,-0.949 z m 116.903,7.0969 c -9.5474,-1.615 -15.5712,-7.1798 -18.3001,-16.9059 -6.8164,-24.2934 8.4699,-44.6904 30.0279,-40.0671 9.8446,2.1113 16.5573,10.9253 16.7621,22.009 0.059,3.1908 -0.2666,6.1785 -0.7233,6.6392 -0.4567,0.4607 -9.2317,1.0626 -19.5,1.3376 l -18.6696,0.5 0.023,5.7077 c 0.025,6.1532 1.6893,9.3686 6.8393,13.2136 3.7363,2.7896 15.3418,3.388 22.929,1.1823 6.8727,-1.9979 6.7085,-2.0071 6.7085,0.3734 0,2.8941 -3.5707,4.7068 -11.6916,5.9352 -7.8849,1.1927 -7.8002,1.1923 -14.4054,0.075 z m 20.5403,-38.1394 c -0.064,-5.2777 -3.8377,-11.2869 -8.1067,-12.9099 -7.6924,-2.9247 -18.5579,0.7941 -21.7065,7.4291 -1.6746,3.529 -2.1662,8.7635 -0.9384,9.9913 0.3804,0.3805 7.4679,0.568 15.75,0.4167 l 15.0583,-0.275 -0.057,-4.6522 z m 69.1559,38.1124 c -1.5955,-0.4774 -4.6448,-2.2694 -6.7763,-3.9823 -4.576,-3.6774 -7.1936,-3.5812 -7.6393,0.2806 -0.2648,2.2937 -0.7956,2.7415 -3.25,2.7415 h -2.9336 v -40.9326 c 0,-39.0205 0.087,-40.9602 1.8591,-41.5227 1.0225,-0.3245 2.5975,-0.3067 3.5,0.04 1.4132,0.5423 1.6428,2.592 1.6546,14.7727 0.014,14.4786 0.4986,18.643 2.1697,18.643 0.5225,0 2.4332,-1.1312 4.2459,-2.5139 12.0215,-9.1692 27.4931,-5.3277 32.5062,8.071 2.5858,6.9113 2.8333,21.491 0.4983,29.3539 -2.2143,7.4565 -8.3911,13.4852 -15.344,14.9763 -5.8959,1.2645 -6.4941,1.2686 -10.4906,0.073 z m 13.9925,-10.2117 c 4.0987,-4.4724 5.3983,-9.111 5.393,-19.2485 -0.01,-9.9736 -3.0069,-17.4259 -8.0742,-20.0463 -7.1648,-3.705 -18.721,0.6115 -23.1602,8.6509 -1.562,2.8289 -1.8196,5.0761 -1.5439,13.4679 0.3833,11.6652 1.247,13.5372 8.4752,18.3701 4.2793,2.8611 5.4242,3.1737 10.2332,2.7935 4.6625,-0.3685 5.8679,-0.9225 8.6769,-3.9876 z m 36.0921,9.8524 c -9.4565,-3.4958 -13.231,-12.6876 -8.787,-21.3986 3.2752,-6.42 13.3662,-10.2023 27.2195,-10.2023 4.858,0 5.8466,-0.3079 6.3795,-1.9869 1.1749,-3.7016 -0.64,-11.1429 -3.4975,-14.3411 -2.4154,-2.7032 -3.499,-3.1091 -9.2836,-3.4774 -5.494,-0.3499 -7.4679,0 -12.2527,2.1942 -7.0449,3.2252 -7.462,3.2283 -7.462,0.056 0,-2.1168 0.9011,-2.9598 5.25,-4.9116 7.5448,-3.3862 14.2793,-4.0255 21.8834,-2.0775 11.9616,3.0645 12.8666,5.4848 12.8666,34.4104 v 21.134 h -2.5248 c -1.7729,0 -2.8077,-0.7444 -3.4752,-2.5 -1.2073,-3.1755 -1.8277,-3.1385 -7.6836,0.4585 -5.8758,3.6092 -13.2053,4.6487 -18.6326,2.6424 z m 15.5983,-6.0105 c 1.7699,-0.7752 4.6804,-2.823 6.4679,-4.5506 2.855,-2.7594 3.25,-3.7792 3.25,-8.3905 0,-2.8871 -0.54,-5.7893 -1.2,-6.4493 -1.7945,-1.7945 -14.9785,-1.5125 -19.8182,0.424 -8.6209,3.4494 -9.4968,14.8076 -1.4818,19.2153 2.8025,1.5412 8.9696,1.4212 12.7821,-0.2489 z m -236.3064,4.3642 c -0.7163,-1.3384 -1.0264,-9.656 -0.8971,-24.0619 0.1087,-12.1091 -0.202,-22.4065 -0.6905,-22.8833 -0.4884,-0.4767 -2.4631,-1.0114 -4.3881,-1.1881 -3.1508,-0.2892 -3.5,-0.6206 -3.5,-3.3213 0,-2.7007 0.3492,-3.032 3.5,-3.3213 1.925,-0.1767 3.866,-0.6777 4.3134,-1.1134 0.4474,-0.4357 1.0436,-3.8625 1.3249,-7.6153 0.6035,-8.0511 3.239,-13.818 7.2665,-15.9008 4.1946,-2.1691 10.0833,-2.707 14.0952,-1.2875 2.7364,0.9681 3.5,1.7837 3.5,3.7383 0,2.4142 -0.1957,2.4884 -5.7059,2.1605 -4.9791,-0.2963 -6.0198,-0.026 -8.1699,2.1244 -2.5583,2.5583 -4.0787,8.8321 -3.4591,14.2739 l 0.3349,2.9412 12.9217,0.2812 c 9.666,0.2103 13.1266,-0.042 13.7347,-1 0.4471,-0.7047 0.8224,-3.5312 0.8339,-6.2812 0.045,-10.7762 3.9005,-17.3695 11.3818,-19.4642 4.4687,-1.2511 9.9993,-0.714 12.3779,1.2021 0.6875,0.5539 1.25,2.0683 1.25,3.3654 0,2.2143 -0.2707,2.3213 -4.4291,1.7514 -8.9899,-1.2322 -11.7573,1.2856 -13.084,11.9039 -0.9521,7.6204 0.025,8.7414 7.6165,8.7414 5.3787,0 5.9087,0.2001 6.4717,2.4432 0.9439,3.7607 -0.2049,4.5568 -6.5751,4.5568 -3.6074,0 -6.1948,0.4834 -6.691,1.25 -0.4449,0.6875 -1.034,11.825 -1.309,24.75 l -0.5,23.5 h -3 -3 l -0.5448,-24.5 c -0.2997,-13.475 -0.6372,-24.6125 -0.75,-24.75 -0.1129,-0.1375 -6.0071,-0.25 -13.0982,-0.25 -10.8343,0 -12.9899,0.2526 -13.5,1.5818 -0.3339,0.87 -0.607,11.8468 -0.607,24.393 0,19.8784 -0.2034,22.8893 -1.5818,23.4182 -2.78,1.0668 -4.3195,0.6599 -5.4425,-1.4384 z m 272.2743,1.4016 c -1.5983,-0.6686 -1.8323,-54.8783 -0.2411,-55.8617 1.7349,-1.0722 4.9911,0.553 4.9911,2.4911 0,2.7964 1.0704,5.0144 2.4199,5.0144 0.6633,0 2.4794,-1.3292 4.0359,-2.9539 4.1049,-4.2845 8.8342,-6.2699 13.0511,-5.4788 2.5836,0.4847 3.6699,1.2891 4.1103,3.0435 1.041,4.1478 -0.052,5.2747 -4.5338,4.6736 -6.5039,-0.8724 -11.3688,2.2591 -16.6471,10.7156 -0.515,0.825 -1.1613,9.825 -1.4363,20 -0.4753,17.5853 -0.5989,18.5094 -2.5,18.6896 -1.1,0.1042 -2.5625,-0.046 -3.25,-0.3334 z M 1431.9739,691.0813 c -13.4609,-6.557 -21.7633,-17.162 -24.4907,-31.283 -1.0905,-5.6458 -1.0184,-9.8894 0.4754,-28 1.2341,-14.9618 1.6571,-28.3741 1.4144,-44.8458 l -0.3462,-23.5 -2.8669,-5.1728 c -3.257,-5.8767 -23.4536,-26.3272 -26.0003,-26.3272 -2.5602,0 -22.8544,10.4708 -31.982,16.5012 -15.8275,10.4568 -14.586,6.9588 -15.6756,44.1663 -1.8963,64.7517 -1.3006,75.0121 5.1369,88.4831 5.2318,10.9481 3.7582,11.5672 -17.3002,7.2685 l -12.6881,-2.59 -11.5253,2.5855 c -12.1062,2.7158 -15.5985,3.1136 -15.5985,1.7768 0,-0.4447 1.3904,-4.6072 3.0898,-9.25 7.0646,-19.3007 7.1397,-20.0559 7.6436,-76.9414 0.4964,-56.0371 0.2882,-58.9092 -4.7786,-65.9038 -2.3631,-3.2621 -5.083,-5.0696 -13.9603,-9.2775 -6.064,-2.8743 -10.8813,-5.6583 -10.7052,-6.1867 0.4388,-1.3164 37.6022,-26.6381 39.05,-26.6072 2.3277,0.05 10.6522,7.0497 14.5968,12.2744 2.2259,2.9481 7.3796,11.3993 11.4527,18.7805 5.3181,9.6374 7.9818,13.5082 9.4495,13.7321 1.1894,0.1815 5.8117,-2.1179 11.0562,-5.5 35.2202,-22.7127 54.3872,-35.0186 56.5122,-36.2831 2.357,-1.4026 2.8846,-1.1951 11.283,4.4374 10.5576,7.0807 25.7578,22.0681 29.5338,29.1205 5.7697,10.7759 5.9975,13.2284 6.494,69.9134 0.5071,57.8833 0.4032,57.0075 7.1701,60.4231 1.9868,1.0028 6.2649,2.5868 9.5068,3.52 5.0213,1.4454 5.6878,1.9008 4.5,3.0748 -4.0212,3.9742 -30.5465,25.456 -31.4473,25.4681 -0.5791,0.01 -4.6291,-1.728 -9,-3.8572 z m -797.88648,1.2681 c -10.97435,-2.6543 -26.15563,-12.9428 -39.14774,-26.5307 -12.05167,-12.6043 -17.62834,-22.5722 -19.36657,-34.6162 -0.57549,-3.9875 -1.49635,-10.3742 -2.04635,-14.1926 -2.51982,-17.4942 -0.14755,-32.928 7.47671,-48.643 10.01663,-20.6462 28.55077,-40.0464 52.02329,-54.4543 8.75892,-5.3764 30.63748,-15.8736 40.3096,-19.3402 12.68586,-4.5468 13.69692,-4.2784 39.1904,10.4053 7.425,4.2766 15.6375,8.4901 18.25,9.3634 4.3476,1.4532 5.1524,1.4514 9.5,-0.021 2.6125,-0.8849 9.12932,-3.8045 14.48183,-6.4882 10.321,-5.1747 12.50133,-5.7382 13.37656,-3.4574 0.76365,1.99 -0.72499,4.465 -10.5729,17.5781 -11.72084,15.6071 -12.56867,17.1693 -14.92465,27.5 -3.99876,17.5342 -5.1707,46.0639 -3.03841,73.9665 0.9318,12.1932 1.45905,14.8419 4.02055,20.198 4.04964,8.4677 7.86298,11.4896 19.31174,15.3038 5.27741,1.7581 9.59528,3.5342 9.59528,3.9468 0,1.4412 -14.05293,12.1968 -27.15016,20.7796 -13.65748,8.95 -15.46478,9.6049 -20.40372,7.3937 -5.56669,-2.4923 -16.27362,-14.6184 -24.44612,-27.6863 -2.73897,-4.3796 -3.10425,-4.2088 -32.74377,15.3155 -14.71055,9.6902 -24.60846,15.3441 -26.60778,15.1991 -0.63165,-0.046 -3.82115,-0.7297 -7.08779,-1.5198 z m 55.75614,-41.6921 c 3.74924,-1.3778 7.12424,-2.8116 7.5,-3.1863 0.37576,-0.3746 0.9082,-14.7071 1.1832,-31.8498 0.58146,-36.2466 -0.36153,-32.4519 13.25958,-53.3573 9.71936,-14.9171 9.7833,-16.1022 0.7373,-13.6663 -6.60847,1.7795 -14.18858,1.2484 -20.2126,-1.4163 -2.40121,-1.0622 -9.07249,-5.4928 -14.82506,-9.8458 -5.75257,-4.353 -12.92581,-9.4824 -15.94052,-11.3988 -5.15896,-3.2793 -5.9837,-3.4842 -14.02425,-3.4842 -7.99546,0 -8.87945,0.216 -13.79378,3.3703 -6.79222,4.3597 -11.20329,9.5934 -15.62102,18.5342 -9.0939,18.4047 -10.03645,38.0132 -2.8887,60.0955 6.77722,20.9376 19.18445,37.7908 33.0392,44.8784 10.46215,5.3521 29.02108,5.944 41.58665,1.3264 z m 407.85954,42.2252 c -10.3641,-2.0396 -22.4256,-9.4587 -35.3086,-21.7185 -14.8757,-14.1562 -22.5369,-26.1771 -24.7331,-38.8079 -5.5883,-32.1391 -3.712,-47.7975 8.3764,-69.9036 11.2857,-20.6382 32.304,-39.6918 60.489,-54.8348 10.6424,-5.7179 29.9495,-13.9803 36.333,-15.5485 5.8305,-1.4323 8.1325,-0.5224 29.3816,11.6134 17.3614,9.9155 23.3926,12.5187 27.0226,11.6637 1.5195,-0.358 8.476,-3.3504 15.4589,-6.65 12.5337,-5.9225 15.8255,-6.5535 15.7818,-3.0252 -0.012,0.9798 -5.0746,8.5431 -11.25,16.8073 -11.5149,15.41 -13.2012,18.806 -15.6289,31.4741 -3.2289,16.8492 -3.9993,49.0662 -1.7342,72.5176 1.0564,10.9371 1.7062,13.8421 4.0656,18.1772 4.2305,7.7729 7.3098,10.1326 18.1475,13.9072 10.7217,3.7342 10.8943,3.825 10.0057,5.2628 -1.5944,2.5797 -29.8672,22.6644 -37.2839,26.4861 -6.3929,3.2941 -11.1767,1.7256 -18.3402,-6.0136 -4.7229,-5.1024 -13.8864,-17.2851 -15.8612,-21.0873 -0.6474,-1.2464 -2.1039,-2.25 -3.2654,-2.25 -2.4683,0 -3.5468,0.6424 -28.3329,16.8758 -17.9568,11.7607 -25.7165,16.1927 -28,15.9927 -0.55,-0.048 -2.9457,-0.4705 -5.3237,-0.9385 z m 52.8237,-41.8126 c 10.4025,-3.3741 9.4347,0.045 10,-35.3295 l 0.5,-31.2879 2.8399,-5.7834 c 1.5619,-3.1808 6.1681,-10.8308 10.2358,-17 9.5029,-14.4118 9.5999,-15.7775 0.9361,-13.1701 -12.4299,3.7408 -20.9871,0.5824 -40.696,-15.021 -11.1621,-8.837 -16.7218,-11.5255 -23.834,-11.5255 -8.6116,0 -14.3579,2.4381 -20.9316,8.8809 -10.102,9.9011 -17.0502,28.278 -17.0502,45.0954 0,34.9466 20.7543,69.3987 46.0827,76.4973 7.5185,2.1072 23.3081,1.4362 31.9173,-1.3562 z m 406.7727,41.3276 c -11.4154,-2.7672 -25.6288,-12.295 -38.8655,-26.0531 -16.9432,-17.6106 -20.6466,-27.3129 -22.6142,-59.2453 -1.2839,-20.837 6.3097,-41.1499 23.1949,-62.0462 14.6303,-18.1059 42.4668,-36.7569 72.5121,-48.5846 5.225,-2.0569 10.4874,-4.202 11.6943,-4.7669 4.4699,-2.0925 10.1722,-0.1049 26.2167,9.138 20.7297,11.942 26.3795,14.4899 30.6084,13.8037 1.8336,-0.2976 9.2673,-3.3678 16.5194,-6.8226 12.3783,-5.897 13.2663,-6.1712 14.5047,-4.4776 0.7255,0.9922 1.0575,2.5478 0.7376,3.4568 -0.6486,1.8437 -14.1411,20.528 -17.0803,23.6528 -8.5593,9.0998 -11.998,24.6167 -12.8536,58 -0.7295,28.4685 1.1833,49.0294 5.2579,56.5158 3.4962,6.4236 8.2953,10.4809 14.8632,12.5656 9.0924,2.8861 13.5317,4.6783 13.5317,5.4632 0,1.8712 -27.3903,21.7035 -36.7337,26.5975 -5.5797,2.9226 -6.5765,3.1468 -9.5,2.1365 -4.4262,-1.5296 -13.9969,-11.4171 -21.2729,-21.977 -6.0675,-8.806 -7.6456,-9.8609 -11.5924,-7.7486 -1.0821,0.5791 -10.4865,6.6412 -20.8987,13.4714 -21.1713,13.8878 -28.9914,18.5151 -31.0832,18.3923 -0.7805,-0.046 -3.9964,-0.7081 -7.1464,-1.4717 z m 54.8737,-41.4559 c 3.3806,-1.1566 6.849,-2.879 7.7076,-3.8278 1.3286,-1.4681 1.6047,-6.2641 1.8536,-32.1932 l 0.2924,-30.4681 2.9306,-5.8792 c 1.6118,-3.2336 6.2243,-10.8658 10.25,-16.9603 9.5331,-14.4325 9.5545,-15.6058 0.239,-13.1266 -13.2248,3.5196 -19.9318,0.7822 -44.4196,-18.1294 -8.6007,-6.6422 -16.8685,-9.6382 -23.5,-8.5156 -14.4926,2.4532 -26.2225,16.1966 -32.0597,37.563 -2.8188,10.3181 -2.3745,26.5823 1.0929,39.9993 2.5557,9.8892 10.3658,26.1449 16.5024,34.3476 6.9921,9.3462 18.4154,16.9361 28.9644,19.2446 6.5996,1.4442 23.233,0.3107 30.1464,-2.0543 z M 190.02676,691.0174 c -3.492,-0.8501 -9.12858,-3.6549 -9.92072,-4.9366 -0.30115,-0.4873 0.44139,-5.6132 1.65009,-11.3908 1.78825,-8.548 1.97757,-10.9879 1.01627,-13.0977 -1.216,-2.6688 -6.48687,-6.2538 -21.22201,-14.4341 -23.09725,-12.8226 -34.08624,-31.9005 -34.32994,-59.6003 -0.11421,-12.9815 1.40394,-19.4431 7.79828,-33.1915 14.31356,-30.7755 42.79662,-59.4688 121.50803,-122.4051 28.39483,-22.704 43.09921,-36.2896 47.69035,-44.0617 0.95748,-1.6209 1.99916,-2.9471 2.31484,-2.9471 1.69297,0 30.51446,22.7646 36.49481,28.8253 9.1286,9.2513 15.91726,20.9302 17.58246,30.2481 0.92529,5.1777 1.64312,6.9266 2.8429,6.9266 0.88279,0 15.51963,-13.95 32.52631,-31 17.00669,-17.05 31.48683,-31 32.17809,-31 0.69126,0 1.8684,0.8731 2.61587,1.9403 0.74747,1.0672 5.83549,6.5881 11.3067,12.2687 22.46122,23.321 69.69291,74.8282 75.42131,82.2486 17.59,22.7857 26.68987,43.9977 29.19826,68.0617 1.02592,9.8422 0.95131,12.7323 -0.56967,22.067 -4.32894,26.568 -19.11679,56.9383 -42.02613,86.3104 -9.442,12.1056 -25.23005,23.7777 -37.0761,27.4102 -13.10906,4.0199 -19.14043,2.9508 -38.67038,-6.8549 -12.80094,-6.4271 -13.10218,-6.5205 -18.91884,-5.8624 -3.25093,0.3678 -5.91078,0.3234 -5.91078,-0.099 0,-1.5033 47.74658,-51.491 49.18246,-51.491 0.44965,0 0.81754,1.5354 0.81754,3.412 0,6.7437 2.96236,18.9327 5.55255,22.8468 3.71163,5.6086 7.89382,7.0535 18.9268,6.539 11.21262,-0.5229 16.09445,-2.5823 23.52065,-9.9223 8.87448,-8.7714 15.14013,-22.7802 17.25352,-38.5755 1.34798,-10.0747 0.31674,-16.6736 -4.4572,-28.5216 -7.98422,-19.8154 -20.69939,-37.0333 -60.83255,-82.3748 -5.79493,-6.547 -19.02724,-21.5786 -29.40514,-33.4036 -11.67187,-13.2994 -19.6752,-21.6122 -20.98281,-21.7941 -2.37447,-0.3304 -25.35702,20.3163 -36.32582,32.6339 l -6.25,7.0185 v 87.048 87.048 l 2.4665,6.5529 c 2.43691,6.4743 8.22762,16.1641 11.06904,18.5223 1.51833,1.2601 1.91096,4.6434 0.85747,7.3887 -0.80867,2.1074 -2.62943,2.0233 -22.39153,-1.0334 l -16.90754,-2.6153 -11.79697,2.5699 c -14.94544,3.2559 -21.08914,3.7129 -24.11545,1.7939 -1.05153,-0.6667 -0.78517,-2.1315 1.31561,-7.2346 1.44875,-3.5193 4.40456,-11.0722 6.56848,-16.7843 l 3.93439,-10.3856 -0.0101,-28.1144 c -0.006,-15.4629 -0.46834,-59.3357 -1.02839,-97.495 -1.18997,-81.0794 -0.21918,-74.493 -12.6976,-86.1465 -5.40068,-5.0436 -8.19934,-6.9662 -10.1152,-6.9488 -6.34752,0.058 -40.39182,31.9952 -55.40448,51.9759 -25.18355,33.5173 -37.20523,63.5698 -38.40223,96 -0.50039,13.557 -0.22335,16.6787 4.25978,48 5.75831,40.2303 5.85412,42.5534 2.07266,50.2542 -2.78586,5.6732 -5.16855,8.8437 -6.49585,8.6434 -0.37321,-0.056 -2.02857,-0.431 -3.67857,-0.8327 z m -63.60212,-213.3515 -3.39788,-2.2867 -0.28691,-9.1666 c -0.66427,-21.2232 8.96671,-41.8076 28.42825,-60.7601 11.63092,-11.3267 23.79591,-17.6073 37.9044,-19.5696 13.62767,-1.8955 24.01401,0.9139 44.42608,12.0166 7.1317,3.8792 13.89848,7.053 15.03729,7.053 1.13881,0 3.88683,-0.9266 6.10672,-2.0591 2.21988,-1.1325 5.2231,-1.92 6.67382,-1.75 2.42631,0.2843 0.92538,2.1922 -18.73042,23.8091 -11.75245,12.925 -21.73239,23.6446 -22.17764,23.8213 -0.44526,0.1768 -3.86327,-2.0942 -7.59558,-5.0466 -15.18469,-12.0117 -19.49919,-13.7234 -36.57177,-14.5095 -18.98945,-0.8744 -29.88529,3.2595 -34.67615,13.1561 -1.86563,3.8539 -2.31855,6.9055 -2.78909,18.7917 -0.51767,13.0767 -0.74217,14.3711 -2.85993,16.4888 -2.89722,2.8973 -5.19896,2.9001 -9.49119,0.011 z"
       id="path966" />
    <path
       style="fill:#ed1b24;fill-opacity:1;stroke-width:6.26604"
       d="m 967.44756,687.3229 c -10.00241,-6.6793 -14.72482,-11.938 -18.12055,-20.1782 -1.36435,-3.3108 -1.79567,-18.9241 -1.51206,-54.7349 0.29668,-37.4596 -0.10703,-51.0533 -1.59981,-53.8694 -4.036,-7.6138 -24.41018,-27.0831 -28.3418,-27.0831 -8.60848,0 -44.67935,21.7224 -47.23566,28.446 -0.82057,2.1583 -1.46289,27.9373 -1.42737,57.2868 0.0637,52.6025 0.11916,53.4887 3.8959,62.2069 3.5999,8.31 3.65396,8.874 0.89497,9.3377 -1.61499,0.2714 -8.80832,-0.6205 -15.98516,-1.9819 -11.65458,-2.2108 -14.27401,-2.2175 -24.51583,-0.063 -6.30686,1.3267 -11.63515,2.2186 -11.84063,1.9819 -0.20549,-0.2367 1.50022,-6.2193 3.79046,-13.2946 l 4.16407,-12.8644 0.0673,-60.572 0.0673,-60.572 -4.0201,-4.3128 c -2.21106,-2.372 -8.20855,-6.4354 -13.32777,-9.0298 -5.11921,-2.5944 -8.88883,-5.3948 -8.37693,-6.2231 0.51189,-0.8282 8.54197,-6.5955 17.84461,-12.816 13.7941,-9.2239 17.4695,-11.0128 19.92606,-9.698 4.61647,2.4706 13.25103,13.8698 21.72784,28.6846 4.21716,7.3702 8.59829,13.7576 9.73584,14.1941 2.76139,1.0597 4.82672,-0.1154 39.04748,-22.2163 16.22044,-10.4757 30.58109,-19.0467 31.91257,-19.0467 2.76309,0 9.20073,4.2796 20.1502,13.3952 8.58032,7.1433 17.77143,19.9786 20.44021,28.5446 1.0586,3.3977 2.2743,28.2636 2.9651,60.6475 1.3103,61.4261 0.5997,58.1022 13.4983,63.1453 l 6.6796,2.6116 -14.7907,12.3103 c -8.1349,6.7707 -15.04256,12.3103 -15.35042,12.3103 -0.30784,0 -4.97124,-2.9459 -10.36308,-6.5464 z"
       id="path11106" />
    <path
       style="fill:#ed1b24;fill-opacity:1;stroke-width:6.26604"
       d="m 943.9196,449.9624 c -8.3367,-1.8658 -25.66579,-8.001 -41.00503,-14.5174 -32.21513,-13.6856 -36.41563,-14.9425 -49.93601,-14.9425 -6.9125,0 -14.60525,0.7667 -17.09498,1.7038 -5.22996,1.9684 -15.53703,11.3863 -20.13366,18.3967 l -3.16311,4.8241 1.02159,-6.4321 c 3.26936,-20.5848 12.42102,-32.2331 29.14383,-37.0946 15.85696,-4.6097 32.63735,-0.7102 75.45375,17.5346 11.48922,4.8958 25.46215,9.7123 31.05094,10.7035 18.65561,3.3086 35.19528,-3.1441 43.88378,-17.1204 3.5108,-5.6475 3.8898,-5.8627 4.3692,-2.481 1.0428,7.3557 -4.9309,21.6922 -11.973,28.7343 -9.56866,9.5686 -26.82519,14.0016 -41.6173,10.691 z"
       id="path11145" />
    <path
       style="fill:#ed1b24;fill-opacity:1;stroke-width:6.26604"
       d="m 933.46734,399.0113 c -6.63317,-1.9967 -21.10553,-7.4753 -32.16081,-12.1745 -29.82163,-12.6764 -36.14686,-14.5755 -48.54459,-14.5755 -16.69427,0 -24.85122,4.2503 -35.49004,18.4925 l -4.80477,6.4321 1.10589,-6.4321 c 3.13928,-18.2589 9.83664,-28.3809 23.0142,-34.7827 5.85049,-2.8422 10.26353,-3.6843 18.89017,-3.605 14.24268,0.1311 24.50073,3.1143 55.11017,16.0268 36.44783,15.3755 45.5856,17.2816 60.95973,12.716 9.56009,-2.839 15.16071,-6.936 21.78271,-15.9346 l 4.8432,-6.5813 -1.1459,7.98 c -1.7435,12.141 -5.3968,19.6757 -12.4795,25.7383 -12.78106,10.9401 -29.64612,13.1522 -51.08046,6.7 z"
       id="path11184" />
    <path
       style="fill:#ed1b24;fill-opacity:1;stroke-width:6.26604"
       d="m 1698.8945,530.4128 c -2.2111,-0.3336 -7.0648,-0.9984 -10.786,-1.4773 l -6.7658,-0.8709 7.1678,-9.7368 c 3.9424,-5.3553 7.1679,-11.1045 7.1679,-12.7761 0,-2.7627 1.3627,-3.0391 14.981,-3.0391 34.2759,0 60.9285,-10.6169 85.683,-34.1313 17.3102,-16.4431 28.9632,-36.7943 35.2046,-61.483 2.7698,-10.9566 3.1934,-40.1194 0.725,-49.9134 -0.8917,-3.5377 -1.9901,-8.1491 -2.441,-10.2477 -1.2852,-5.9819 -8.2702,-22.4617 -12.7875,-30.1698 -10.9103,-18.6171 -29.7886,-35.9305 -50.6132,-46.4176 -21.4462,-10.8001 -41.4577,-14.3537 -67.1918,-11.9319 -29.6023,2.786 -53.0335,13.8655 -74.4106,35.1853 -37.5899,37.4891 -47.0812,94.521 -23.4629,140.9858 6.9445,13.662 11.29,19.5523 23.839,32.3133 12.6256,12.8389 26.9951,22.1552 44.0919,28.5863 l 13.5837,5.1096 -11.0153,5.0773 c -6.0584,2.7925 -12.4217,5.0773 -14.1407,5.0773 -1.719,0 -11.4604,-4.6351 -21.6475,-10.3002 -10.1871,-5.665 -21.5254,-11.1088 -25.1963,-12.0973 -8.0952,-2.1798 -17.6185,-12.6741 -29.2539,-32.2366 -24.2457,-40.7641 -27.2729,-94.748 -7.6898,-137.1331 8.1773,-17.6986 16.3194,-29.5532 29.9084,-43.5454 72.6331,-74.7884 195.9592,-55.2454 242.8567,38.4846 24.371,48.7082 19.0286,110.6782 -13.3259,154.5743 -20.6837,28.0622 -51.2022,48.9646 -83.9404,57.4919 -16.8258,4.3825 -38.8044,6.3924 -50.5404,4.6218 z"
       id="path11223" />
    <path
       style="fill:#ed1b24;fill-opacity:1;stroke-width:6.26604"
       d="m 1699.8191,471.8951 c -21.3797,-3.6639 -37.5257,-12.0757 -52.4341,-27.3172 -18.0878,-18.4919 -25.6765,-37.2512 -25.6765,-63.4724 0,-26.6776 7.7746,-45.601 26.4838,-64.4624 16.8157,-16.9524 42.1355,-27.944 64.3705,-27.944 22.2351,0 47.5549,10.9916 64.3705,27.944 18.7059,18.858 26.4996,37.8229 26.4647,64.3983 -0.035,26.4226 -8.1367,46.189 -26.3855,64.3725 -20.468,20.3949 -51.1966,30.9363 -77.1934,26.4812 z m 26.5384,-28.904 c 18.9219,-3.5884 34.9998,-16.4207 43.769,-34.9334 4.7319,-9.9893 5.1499,-12.1838 5.1499,-27.0356 0,-15.454 -0.2664,-16.7027 -6.0661,-28.4376 -6.9522,-14.0669 -16.4187,-23.4958 -30.1148,-29.9954 -7.8678,-3.7338 -10.7971,-4.1971 -26.5327,-4.1971 -15.7356,0 -18.6649,0.4633 -26.5326,4.1971 -13.6962,6.4996 -23.1626,15.9285 -30.1149,29.9954 -5.7997,11.7349 -6.0661,12.9836 -6.0661,28.4376 0,14.8341 0.4215,17.0534 5.1227,26.9775 13.0256,27.4964 40.3311,40.8809 71.3856,34.9915 z"
       id="path11262" />
    <path
       style="fill:#ed1b24;fill-opacity:1;stroke-width:6.26604"
       d="m 1697.2467,410.4523 c -18.677,-9.4466 -23.8022,-36.0048 -9.9197,-51.4026 17.9281,-19.8849 47.35,-15.0143 57.6403,9.5419 6.4456,15.3812 -2.6052,36.4776 -18.5305,43.1924 -8.2275,3.469 -20.8357,2.8938 -29.1901,-1.3317 z"
       id="path11301" />
    <path
       style="fill:#494949;fill-opacity:1;stroke-width:12.5321"
       d="m 185.75199,687.2126 c -2.31681,-1.4714 -3.66862,-7.7886 -3.21608,-15.0293 0.74359,-11.8977 -0.0837,-13.0681 -17.41669,-24.6423 -26.39368,-17.6245 -32.96739,-28.3438 -34.3659,-56.0384 -0.99058,-19.6163 0.0307,-25.1296 7.31916,-39.5127 11.97103,-23.6237 46.59071,-58.7958 107.10602,-108.8151 28.71752,-23.7366 54.33956,-46.1926 56.93788,-49.9022 4.68039,-6.6822 4.89254,-6.6149 22.8751,7.2585 19.0765,14.7174 33.60149,32.9752 33.60149,42.2367 0,12.6983 8.46139,7.983 38.3249,-21.3573 l 31.57684,-31.0236 42.55082,46.0126 c 49.20594,53.2091 59.478,67.0557 68.32869,92.1059 12.73198,36.0354 1.52294,80.7022 -31.23741,124.4775 -26.16069,34.9568 -48.56953,42.7697 -80.15515,27.9466 l -19.05352,-8.9419 20.44274,-21.8533 20.44273,-21.8534 5.11653,13.8998 c 4.86837,13.2255 5.8057,13.9491 19.32517,14.9186 18.72547,1.3429 26.72257,-3.4243 36.79762,-21.9355 16.1992,-29.7632 9.18445,-58.8571 -24.03515,-99.6864 -29.00162,-35.6451 -80.99806,-93.2663 -84.16195,-93.2663 -1.6558,0 -12.29232,8.9128 -23.63671,19.8062 l -20.62615,19.8063 0.0387,88.7364 0.0387,88.7365 8.07671,14.1291 c 4.44219,7.771 7.51039,14.6954 6.81821,15.3876 -0.69218,0.6922 -9.44008,-0.024 -19.43977,-1.5926 -11.24174,-1.7629 -24.32796,-1.6358 -34.28534,0.3331 -8.85725,1.7513 -16.75209,2.5361 -17.5441,1.7441 -0.79201,-0.792 1.59912,-9.3135 5.31362,-18.9367 6.51794,-16.8862 6.67895,-20.9188 4.61365,-115.5525 -2.29456,-105.1387 -2.91,-108.8125 -19.49421,-116.3688 -6.65874,-3.0339 -9.58467,-1.8852 -22.90105,8.9907 -36.23109,29.5911 -65.81579,75.3372 -74.06921,114.5316 -4.49362,21.3395 -4.43434,27.1963 0.68389,67.5754 4.33033,34.1631 4.77031,46.0405 1.93592,52.2613 -3.88487,8.5264 -6.17758,9.5094 -12.62678,5.4138 z"
       id="path15000" />
    <path
       style="fill:#494949;fill-opacity:1;stroke-width:12.5321"
       d="m 182.8688,685.0179 c -1.01967,-2.6572 -0.92925,-8.5156 0.20094,-13.0186 2.21867,-8.8399 0.33253,-11.0106 -27.08984,-31.178 -19.05558,-14.0141 -25.71736,-27.7889 -25.72364,-53.1895 -0.01,-39.3661 22.70675,-67.8332 116.56224,-146.0695 29.61953,-24.6903 55.16424,-47.2333 56.76603,-50.0956 5.90424,-10.5503 55.00844,35.2445 55.00844,51.3011 0,12.144 7.48431,7.9248 38.14458,-21.5036 l 32.05236,-30.7646 42.61872,45.9562 c 63.86373,68.8649 76.65405,92.5638 72.8138,134.9149 -3.11031,34.3008 -34.88097,90.0836 -61.24199,107.5285 -18.88778,12.4994 -30.33397,13.1073 -53.24019,2.8276 -10.8295,-4.86 -19.69,-9.766 -19.69,-10.9021 0,-1.1362 9.25489,-11.2384 20.56641,-22.4494 l 20.56639,-20.3836 2.20897,10.0573 c 3.10049,14.1164 9.84748,19.6394 23.99193,19.6394 32.06252,0 52.3674,-46.3073 35.95986,-82.01 -3.25159,-7.0754 -11.82765,-20.6846 -19.05798,-30.2428 -19.15623,-25.3236 -88.29082,-103.2245 -91.60854,-103.2245 -1.5576,0 -12.11378,8.9128 -23.45817,19.8062 l -20.62615,19.8063 0.0388,88.7364 c 0.0387,88.6101 0.0501,88.7564 8.0402,102.7331 4.40081,7.6981 8.0009,14.2107 8.0002,14.4724 -7.1e-4,0.2616 -16.64397,0.4757 -36.98505,0.4757 -20.34108,0 -36.98372,-0.3082 -36.98366,-0.685 6e-5,-0.3767 3.05002,-8.3365 6.7777,-17.6884 6.56247,-16.4638 6.70477,-20.062 4.48311,-113.3694 -1.26196,-53.0013 -3.45627,-99.4217 -4.87625,-103.1566 -1.41998,-3.7348 -6.43341,-9.3142 -11.14096,-12.3987 -8.13468,-5.3301 -8.9866,-5.3306 -17.17771,-0.011 -25.58062,16.6129 -62.10376,63.0068 -74.69798,94.8858 -11.98763,30.3436 -13.38761,48.3553 -7.40578,95.28 4.20083,32.9535 4.5923,44.3822 1.73502,50.6532 -4.08549,8.9667 -12.65303,10.7688 -15.53176,3.2669 z"
       id="path15039" />
  </g>
</svg>
