{
	"asset":{
		"generator":"Khronos glTF Blender I/O v4.3.47",
		"version":"2.0"
	},
	"scene":0,
	"scenes":[
		{
			"name":"Scene",
			"nodes":[
				0,
				1
			]
		}
	],
	"nodes":[
		{
			"mesh":0,
			"name":"Cube.001"
		},
		{
			"name":"B\u00e9zierCircle"
		}
	],
	"materials":[
		{
			"doubleSided":true,
			"name":"Material.023",
			"pbrMetallicRoughness":{
				"metallicFactor":0
			}
		},
		{
			"doubleSided":true,
			"name":"Material.024",
			"pbrMetallicRoughness":{
				"metallicFactor":0.6639999747276306,
				"roughnessFactor":0.8140000104904175
			}
		},
		{
			"doubleSided":true,
			"name":"Material.025",
			"pbrMetallicRoughness":{
				"baseColorFactor":[
					0.10274428874254227,
					0.10274428874254227,
					0.10274428874254227,
					1
				],
				"roughnessFactor":0.5545454621315002
			}
		},
		{
			"doubleSided":true,
			"name":"Material.026",
			"pbrMetallicRoughness":{
				"metallicFactor":0.6639999747276306,
				"roughnessFactor":0.8140000104904175
			}
		},
		{
			"doubleSided":true,
			"name":"Material.027",
			"pbrMetallicRoughness":{
				"metallicFactor":0.6639999747276306,
				"roughnessFactor":0.8140000104904175
			}
		},
		{
			"doubleSided":true,
			"name":"Material.028",
			"pbrMetallicRoughness":{
				"baseColorFactor":[
					0.800000011920929,
					0.800000011920929,
					0.800000011920929,
					1
				],
				"metallicFactor":0,
				"roughnessFactor":0.5
			}
		},
		{
			"doubleSided":true,
			"name":"Material.029",
			"pbrMetallicRoughness":{
				"baseColorFactor":[
					0.800000011920929,
					0.800000011920929,
					0.800000011920929,
					1
				],
				"metallicFactor":0,
				"roughnessFactor":0.5
			}
		},
		{
			"doubleSided":true,
			"name":"Material.030",
			"pbrMetallicRoughness":{
				"metallicFactor":0,
				"roughnessFactor":0.5
			}
		},
		{
			"doubleSided":true,
			"name":"Material.031",
			"pbrMetallicRoughness":{
				"baseColorFactor":[
					0.17834842205047607,
					0.8000074625015259,
					0.10207075625658035,
					1
				],
				"metallicFactor":0,
				"roughnessFactor":0.5
			}
		},
		{
			"doubleSided":true,
			"name":"Material.032",
			"pbrMetallicRoughness":{
				"baseColorFactor":[
					0.800000011920929,
					0.800000011920929,
					0.800000011920929,
					1
				],
				"metallicFactor":0,
				"roughnessFactor":0.5
			}
		},
		{
			"doubleSided":true,
			"name":"Material.033",
			"pbrMetallicRoughness":{
				"metallicFactor":0
			}
		}
	],
	"meshes":[
		{
			"name":"Cube.016",
			"primitives":[
				{
					"attributes":{
						"POSITION":0
					},
					"indices":1,
					"material":0
				},
				{
					"attributes":{
						"POSITION":2
					},
					"indices":3,
					"material":1
				},
				{
					"attributes":{
						"POSITION":4
					},
					"indices":5,
					"material":2
				},
				{
					"attributes":{
						"POSITION":6
					},
					"indices":7,
					"material":3
				},
				{
					"attributes":{
						"POSITION":8
					},
					"indices":9,
					"material":4
				},
				{
					"attributes":{
						"POSITION":10
					},
					"indices":11,
					"material":5
				},
				{
					"attributes":{
						"POSITION":12
					},
					"indices":11,
					"material":6
				},
				{
					"attributes":{
						"POSITION":13
					},
					"indices":14,
					"material":7
				},
				{
					"attributes":{
						"POSITION":15
					},
					"indices":16,
					"material":8
				},
				{
					"attributes":{
						"POSITION":17
					},
					"indices":18,
					"material":9
				},
				{
					"attributes":{
						"POSITION":19
					},
					"indices":20,
					"material":10
				}
			]
		}
	],
	"accessors":[
		{
			"bufferView":0,
			"componentType":5126,
			"count":81940,
			"max":[
				111.10424041748047,
				31.727313995361328,
				92.12176513671875
			],
			"min":[
				-113.12894439697266,
				7.100116729736328,
				-99.61600494384766
			],
			"type":"VEC3"
		},
		{
			"bufferView":1,
			"componentType":5125,
			"count":360567,
			"type":"SCALAR"
		},
		{
			"bufferView":2,
			"componentType":5126,
			"count":41838,
			"max":[
				125.64091491699219,
				31.974884033203125,
				106.35649108886719
			],
			"min":[
				-125.5657730102539,
				1.091695785522461,
				-113.68959045410156
			],
			"type":"VEC3"
		},
		{
			"bufferView":3,
			"componentType":5123,
			"count":104889,
			"type":"SCALAR"
		},
		{
			"bufferView":4,
			"componentType":5126,
			"count":22768,
			"max":[
				95.39635467529297,
				23.758094787597656,
				76.39974212646484
			],
			"min":[
				-97.4179916381836,
				6.628076553344727,
				-83.88531494140625
			],
			"type":"VEC3"
		},
		{
			"bufferView":5,
			"componentType":5123,
			"count":126408,
			"type":"SCALAR"
		},
		{
			"bufferView":6,
			"componentType":5126,
			"count":3740,
			"max":[
				109.89445495605469,
				30.36026382446289,
				91.24434661865234
			],
			"min":[
				-112.5482406616211,
				5.5860443115234375,
				-99.37914276123047
			],
			"type":"VEC3"
		},
		{
			"bufferView":7,
			"componentType":5123,
			"count":16116,
			"type":"SCALAR"
		},
		{
			"bufferView":8,
			"componentType":5126,
			"count":17252,
			"max":[
				90.92842864990234,
				5.58974552154541,
				72.01326751708984
			],
			"min":[
				-92.99012756347656,
				1.9340884685516357,
				-79.49382019042969
			],
			"type":"VEC3"
		},
		{
			"bufferView":9,
			"componentType":5123,
			"count":34884,
			"type":"SCALAR"
		},
		{
			"bufferView":10,
			"componentType":5126,
			"count":7868,
			"max":[
				48.52013397216797,
				5.937258243560791,
				1.4324584007263184
			],
			"min":[
				43.34891128540039,
				1.98992919921875,
				-11.394723892211914
			],
			"type":"VEC3"
		},
		{
			"bufferView":11,
			"componentType":5123,
			"count":61536,
			"type":"SCALAR"
		},
		{
			"bufferView":12,
			"componentType":5126,
			"count":7868,
			"max":[
				-45.58951187133789,
				5.937258243560791,
				1.4324727058410645
			],
			"min":[
				-50.7607307434082,
				1.98992919921875,
				-11.394710540771484
			],
			"type":"VEC3"
		},
		{
			"bufferView":13,
			"componentType":5126,
			"count":4,
			"max":[
				45.891502380371094,
				1.9757301807403564,
				24.127750396728516
			],
			"min":[
				-47.553714752197266,
				1.9757301807403564,
				-32.985843658447266
			],
			"type":"VEC3"
		},
		{
			"bufferView":14,
			"componentType":5123,
			"count":6,
			"type":"SCALAR"
		},
		{
			"bufferView":15,
			"componentType":5126,
			"count":48,
			"max":[
				91.13784790039062,
				1.8446879386901855,
				72.14327239990234
			],
			"min":[
				-93.16923522949219,
				1.8446879386901855,
				-79.63176727294922
			],
			"type":"VEC3"
		},
		{
			"bufferView":16,
			"componentType":5123,
			"count":138,
			"type":"SCALAR"
		},
		{
			"bufferView":17,
			"componentType":5126,
			"count":108,
			"max":[
				21.552766799926758,
				3.494723320007324,
				31.778034210205078
			],
			"min":[
				-21.586307525634766,
				1.8735079765319824,
				28.097522735595703
			],
			"type":"VEC3"
		},
		{
			"bufferView":18,
			"componentType":5123,
			"count":612,
			"type":"SCALAR"
		},
		{
			"bufferView":19,
			"componentType":5126,
			"count":384,
			"max":[
				21.2364501953125,
				2.7005536556243896,
				30.594818115234375
			],
			"min":[
				-21.22960662841797,
				1.9969475269317627,
				29.812665939331055
			],
			"type":"VEC3"
		},
		{
			"bufferView":20,
			"componentType":5123,
			"count":2016,
			"type":"SCALAR"
		}
	],
	"bufferViews":[
		{
			"buffer":0,
			"byteLength":983280,
			"byteOffset":0,
			"target":34962
		},
		{
			"buffer":0,
			"byteLength":1442268,
			"byteOffset":983280,
			"target":34963
		},
		{
			"buffer":0,
			"byteLength":502056,
			"byteOffset":2425548,
			"target":34962
		},
		{
			"buffer":0,
			"byteLength":209778,
			"byteOffset":2927604,
			"target":34963
		},
		{
			"buffer":0,
			"byteLength":273216,
			"byteOffset":3137384,
			"target":34962
		},
		{
			"buffer":0,
			"byteLength":252816,
			"byteOffset":3410600,
			"target":34963
		},
		{
			"buffer":0,
			"byteLength":44880,
			"byteOffset":3663416,
			"target":34962
		},
		{
			"buffer":0,
			"byteLength":32232,
			"byteOffset":3708296,
			"target":34963
		},
		{
			"buffer":0,
			"byteLength":207024,
			"byteOffset":3740528,
			"target":34962
		},
		{
			"buffer":0,
			"byteLength":69768,
			"byteOffset":3947552,
			"target":34963
		},
		{
			"buffer":0,
			"byteLength":94416,
			"byteOffset":4017320,
			"target":34962
		},
		{
			"buffer":0,
			"byteLength":123072,
			"byteOffset":4111736,
			"target":34963
		},
		{
			"buffer":0,
			"byteLength":94416,
			"byteOffset":4234808,
			"target":34962
		},
		{
			"buffer":0,
			"byteLength":48,
			"byteOffset":4329224,
			"target":34962
		},
		{
			"buffer":0,
			"byteLength":12,
			"byteOffset":4329272,
			"target":34963
		},
		{
			"buffer":0,
			"byteLength":576,
			"byteOffset":4329284,
			"target":34962
		},
		{
			"buffer":0,
			"byteLength":276,
			"byteOffset":4329860,
			"target":34963
		},
		{
			"buffer":0,
			"byteLength":1296,
			"byteOffset":4330136,
			"target":34962
		},
		{
			"buffer":0,
			"byteLength":1224,
			"byteOffset":4331432,
			"target":34963
		},
		{
			"buffer":0,
			"byteLength":4608,
			"byteOffset":4332656,
			"target":34962
		},
		{
			"buffer":0,
			"byteLength":4032,
			"byteOffset":4337264,
			"target":34963
		}
	],
	"buffers":[
		{
			"byteLength":4341296,
			"uri":"web_stadion.bin"
		}
	]
}
