{
	"asset":{
		"generator":"Khronos glTF Blender I/O v4.3.47",
		"version":"2.0"
	},
	"scene":0,
	"scenes":[
		{
			"extras":{
				"turn_camera":{},
				"uiListCollec":[
					{
						"idx":0,
						"val":2.5987534523010254,
						"color":[
							0.1651311218738556,
							0.16513235867023468,
							0.1651322841644287,
							1.0
						]
					},
					{
						"idx":1,
						"val":5.58974552154541,
						"color":[
							0.4286876916885376,
							0.43415412306785583,
							0.3967553973197937,
							1.0
						]
					}
				]
			},
			"name":"Scene",
			"nodes":[
				0,
				1,
				2,
				3,
				4,
				5,
				6,
				7
			]
		}
	],
	"nodes":[
		{
			"name":"B\u00e9zierCircle",
			"scale":[
				92.1535415649414,
				92.1535415649414,
				92.1535415649414
			],
			"translation":[
				-1.0156936645507812,
				-0.6644306182861328,
				-0.4246499538421631
			]
		},
		{
			"mesh":0,
			"name":"Cube.002",
			"scale":[
				5.943584442138672,
				5.943584442138672,
				5.943584442138672
			],
			"translation":[
				0,
				4.732034683227539,
				1.0956813097000122
			]
		},
		{
			"mesh":1,
			"name":"Cube.001",
			"rotation":[
				0,
				0.7071067094802856,
				0,
				0.7071068286895752
			],
			"translation":[
				28.81905174255371,
				7.163546085357666,
				-2.2501564025878906
			]
		},
		{
			"mesh":2,
			"name":"Cube.015",
			"rotation":[
				-1,
				0,
				0,
				7.549790126404332e-08
			],
			"translation":[
				-46.35408020019531,
				3.7556300163269043,
				61.073387145996094
			]
		},
		{
			"mesh":3,
			"name":"Circle.001",
			"rotation":[
				0,
				-0.7071065902709961,
				0,
				0.7071069478988647
			],
			"scale":[
				0.1884739249944687,
				0.1884739249944687,
				0.1884739249944687
			],
			"translation":[
				43.53738784790039,
				1.989930272102356,
				-4.981132984161377
			]
		},
		{
			"mesh":4,
			"name":"B\u00e9zierCircle.003",
			"scale":[
				92.1535415649414,
				92.1535415649414,
				92.1535415649414
			],
			"translation":[
				-1.0156936645507812,
				1.8446879386901855,
				-0.4246499538421631
			]
		},
		{
			"mesh":5,
			"name":"Cube.016",
			"translation":[
				2.3593263626098633,
				2.6262593269348145,
				29.93777847290039
			]
		},
		{
			"mesh":6,
			"name":"Cube.017",
			"translation":[
				32.78499984741211,
				2.6262593269348145,
				29.93777847290039
			]
		}
	],
	"materials":[
		{
			"doubleSided":true,
			"name":"Material.006",
			"pbrMetallicRoughness":{
				"metallicFactor":0.6639999747276306,
				"roughnessFactor":0.8140000104904175
			}
		},
		{
			"doubleSided":true,
			"name":"Material.004",
			"pbrMetallicRoughness":{
				"metallicFactor":0
			}
		},
		{
			"doubleSided":true,
			"name":"Material.014",
			"pbrMetallicRoughness":{
				"metallicFactor":0.6639999747276306,
				"roughnessFactor":0.8140000104904175
			}
		},
		{
			"doubleSided":true,
			"name":"Material.002",
			"pbrMetallicRoughness":{
				"baseColorFactor":[
					0.10274428874254227,
					0.10274428874254227,
					0.10274428874254227,
					1
				],
				"roughnessFactor":0.5545454621315002
			}
		},
		{
			"doubleSided":true,
			"name":"Material.016",
			"pbrMetallicRoughness":{
				"metallicFactor":0.6639999747276306,
				"roughnessFactor":0.8140000104904175
			}
		},
		{
			"doubleSided":true,
			"name":"Material.005",
			"pbrMetallicRoughness":{
				"baseColorFactor":[
					0.800000011920929,
					0.800000011920929,
					0.800000011920929,
					1
				],
				"metallicFactor":0,
				"roughnessFactor":0.5
			}
		},
		{
			"doubleSided":true,
			"name":"Material.017",
			"pbrMetallicRoughness":{
				"baseColorFactor":[
					0.800000011920929,
					0.800000011920929,
					0.800000011920929,
					1
				],
				"metallicFactor":0,
				"roughnessFactor":0.5
			}
		},
		{
			"doubleSided":true,
			"name":"Material",
			"pbrMetallicRoughness":{
				"baseColorTexture":{
					"index":0
				},
				"metallicFactor":0,
				"roughnessFactor":0.5
			}
		},
		{
			"doubleSided":true,
			"name":"Material.018",
			"pbrMetallicRoughness":{
				"baseColorFactor":[
					0.17834842205047607,
					0.8000074625015259,
					0.10207075625658035,
					1
				],
				"metallicFactor":0,
				"roughnessFactor":0.5
			}
		},
		{
			"doubleSided":true,
			"name":"Material.019",
			"pbrMetallicRoughness":{
				"baseColorFactor":[
					0.800000011920929,
					0.800000011920929,
					0.800000011920929,
					1
				],
				"metallicFactor":0,
				"roughnessFactor":0.5
			}
		}
	],
	"meshes":[
		{
			"name":"Cube.002",
			"primitives":[
				{
					"attributes":{
						"POSITION":0,
						"NORMAL":1,
						"TEXCOORD_0":2
					},
					"indices":3,
					"material":0
				}
			]
		},
		{
			"name":"Cube.001",
			"primitives":[
				{
					"attributes":{
						"POSITION":4,
						"NORMAL":5,
						"TEXCOORD_0":6
					},
					"indices":7,
					"material":1
				},
				{
					"attributes":{
						"POSITION":8,
						"NORMAL":9,
						"TEXCOORD_0":10
					},
					"indices":11,
					"material":2
				},
				{
					"attributes":{
						"POSITION":12,
						"NORMAL":13,
						"TEXCOORD_0":14
					},
					"indices":15,
					"material":3
				},
				{
					"attributes":{
						"POSITION":16,
						"NORMAL":17,
						"TEXCOORD_0":18
					},
					"indices":19,
					"material":4
				}
			]
		},
		{
			"name":"Cube.043",
			"primitives":[
				{
					"attributes":{
						"POSITION":20,
						"NORMAL":21,
						"TEXCOORD_0":22
					},
					"indices":23
				}
			]
		},
		{
			"name":"Circle.002",
			"primitives":[
				{
					"attributes":{
						"POSITION":24,
						"NORMAL":25,
						"TEXCOORD_0":26
					},
					"indices":27,
					"material":5
				},
				{
					"attributes":{
						"POSITION":28,
						"NORMAL":29,
						"TEXCOORD_0":30
					},
					"indices":31,
					"material":6
				},
				{
					"attributes":{
						"POSITION":32,
						"NORMAL":33,
						"TEXCOORD_0":34
					},
					"indices":35,
					"material":7
				}
			]
		},
		{
			"name":"Mesh",
			"primitives":[
				{
					"attributes":{
						"POSITION":36,
						"NORMAL":37
					},
					"indices":38,
					"material":8
				}
			]
		},
		{
			"name":"Cube",
			"primitives":[
				{
					"attributes":{
						"POSITION":39,
						"NORMAL":40,
						"TEXCOORD_0":41
					},
					"indices":42,
					"material":9
				},
				{
					"attributes":{
						"POSITION":43,
						"NORMAL":44,
						"TEXCOORD_0":45
					},
					"indices":46,
					"material":1
				}
			]
		},
		{
			"name":"Cube.017",
			"primitives":[
				{
					"attributes":{
						"POSITION":47,
						"NORMAL":48,
						"TEXCOORD_0":49
					},
					"indices":42,
					"material":9
				},
				{
					"attributes":{
						"POSITION":50,
						"NORMAL":51,
						"TEXCOORD_0":52
					},
					"indices":46,
					"material":1
				}
			]
		}
	],
	"textures":[
		{
			"sampler":0,
			"source":0
		}
	],
	"images":[
		{
			"mimeType":"image/png",
			"name":"CAMPO DE FUTEBOL",
			"uri":"textures/CAMPO%20DE%20FUTEBOL.png"
		},
		{
			"mimeType":"image/jpeg",
			"name":"Image",
			"uri":"textures/Image.jpg"
		},
		{
			"mimeType":"image/jpeg",
			"name":"Image",
			"uri":"textures/Image-1.jpg"
		},
		{
			"mimeType":"image/jpeg",
			"name":"Image",
			"uri":"textures/Image-2.jpg"
		},
		{
			"mimeType":"image/jpeg",
			"name":"Image",
			"uri":"textures/Image-3.jpg"
		},
		{
			"mimeType":"image/jpeg",
			"name":"Image",
			"uri":"textures/Image-4.jpg"
		},
		{
			"mimeType":"image/jpeg",
			"name":"Image",
			"uri":"textures/Image-5.jpg"
		},
		{
			"mimeType":"image/jpeg",
			"name":"Image",
			"uri":"textures/Image-6.jpg"
		},
		{
			"mimeType":"image/jpeg",
			"name":"Image",
			"uri":"textures/Image-7.jpg"
		},
		{
			"mimeType":"image/jpeg",
			"name":"Image",
			"uri":"textures/Image-8.jpg"
		},
		{
			"mimeType":"image/jpeg",
			"name":"Image",
			"uri":"textures/Image-9.jpg"
		}
	],
	"accessors":[
		{
			"bufferView":0,
			"componentType":5126,
			"count":23232,
			"max":[
				15.298583984375,
				0.1443086862564087,
				11.931787490844727
			],
			"min":[
				-15.645462989807129,
				-0.470750629901886,
				-13.559074401855469
			],
			"type":"VEC3"
		},
		{
			"bufferView":1,
			"componentType":5126,
			"count":23232,
			"type":"VEC3"
		},
		{
			"bufferView":2,
			"componentType":5126,
			"count":23232,
			"type":"VEC2"
		},
		{
			"bufferView":3,
			"componentType":5123,
			"count":34848,
			"type":"SCALAR"
		},
		{
			"bufferView":4,
			"componentType":5126,
			"count":440011,
			"max":[
				97.3658447265625,
				24.563770294189453,
				82.28520202636719
			],
			"min":[
				-94.37191772460938,
				-0.06342935562133789,
				-141.947998046875
			],
			"type":"VEC3"
		},
		{
			"bufferView":5,
			"componentType":5126,
			"count":440011,
			"type":"VEC3"
		},
		{
			"bufferView":6,
			"componentType":5126,
			"count":440011,
			"type":"VEC2"
		},
		{
			"bufferView":7,
			"componentType":5125,
			"count":813552,
			"type":"SCALAR"
		},
		{
			"bufferView":8,
			"componentType":5126,
			"count":76756,
			"max":[
				111.4394302368164,
				24.811336517333984,
				96.82186126708984
			],
			"min":[
				-108.60665130615234,
				-6.071591854095459,
				-154.38482666015625
			],
			"type":"VEC3"
		},
		{
			"bufferView":9,
			"componentType":5126,
			"count":76756,
			"type":"VEC3"
		},
		{
			"bufferView":10,
			"componentType":5126,
			"count":76756,
			"type":"VEC2"
		},
		{
			"bufferView":11,
			"componentType":5125,
			"count":129387,
			"type":"SCALAR"
		},
		{
			"bufferView":12,
			"componentType":5126,
			"count":361100,
			"max":[
				81.6399154663086,
				16.589189529418945,
				66.57714080810547
			],
			"min":[
				-78.65335845947266,
				-0.5354714393615723,
				-126.246826171875
			],
			"type":"VEC3"
		},
		{
			"bufferView":13,
			"componentType":5126,
			"count":361100,
			"type":"VEC3"
		},
		{
			"bufferView":14,
			"componentType":5126,
			"count":361100,
			"type":"VEC2"
		},
		{
			"bufferView":15,
			"componentType":5125,
			"count":561000,
			"type":"SCALAR"
		},
		{
			"bufferView":16,
			"componentType":5126,
			"count":10744,
			"max":[
				97.12898254394531,
				23.196718215942383,
				81.07540130615234
			],
			"min":[
				-93.4945068359375,
				-1.5775017738342285,
				-141.36729431152344
			],
			"type":"VEC3"
		},
		{
			"bufferView":17,
			"componentType":5126,
			"count":10744,
			"type":"VEC3"
		},
		{
			"bufferView":18,
			"componentType":5126,
			"count":10744,
			"type":"VEC2"
		},
		{
			"bufferView":19,
			"componentType":5123,
			"count":16116,
			"type":"SCALAR"
		},
		{
			"bufferView":20,
			"componentType":5126,
			"count":24,
			"max":[
				0.2963714599609375,
				1.5904316902160645,
				0.24407386779785156
			],
			"min":[
				-0.2963714599609375,
				-1.5904316902160645,
				-0.24407386779785156
			],
			"type":"VEC3"
		},
		{
			"bufferView":21,
			"componentType":5126,
			"count":24,
			"type":"VEC3"
		},
		{
			"bufferView":22,
			"componentType":5126,
			"count":24,
			"type":"VEC2"
		},
		{
			"bufferView":23,
			"componentType":5123,
			"count":36,
			"type":"SCALAR"
		},
		{
			"bufferView":24,
			"componentType":5126,
			"count":32136,
			"max":[
				34.0290641784668,
				20.94363021850586,
				1
			],
			"min":[
				-34.0290641784668,
				-5.4486326916958205e-06,
				-26.43730354309082
			],
			"type":"VEC3"
		},
		{
			"bufferView":25,
			"componentType":5126,
			"count":32136,
			"type":"VEC3"
		},
		{
			"bufferView":26,
			"componentType":5126,
			"count":32136,
			"type":"VEC2"
		},
		{
			"bufferView":27,
			"componentType":5123,
			"count":61536,
			"type":"SCALAR"
		},
		{
			"bufferView":28,
			"componentType":5126,
			"count":32879,
			"max":[
				34.028907775878906,
				20.94363021850586,
				500.324462890625
			],
			"min":[
				-34.02922058105469,
				-5.4486326916958205e-06,
				472.88714599609375
			],
			"type":"VEC3"
		},
		{
			"bufferView":29,
			"componentType":5126,
			"count":32879,
			"type":"VEC3"
		},
		{
			"bufferView":30,
			"componentType":5126,
			"count":32879,
			"type":"VEC2"
		},
		{
			"bufferView":31,
			"componentType":5123,
			"count":61536,
			"type":"SCALAR"
		},
		{
			"bufferView":32,
			"componentType":5126,
			"count":4,
			"max":[
				154.445068359375,
				-0.07534217834472656,
				483.3088073730469
			],
			"min":[
				-148.5867919921875,
				-0.07534217834472656,
				-12.490447998046875
			],
			"type":"VEC3"
		},
		{
			"bufferView":33,
			"componentType":5126,
			"count":4,
			"type":"VEC3"
		},
		{
			"bufferView":34,
			"componentType":5126,
			"count":4,
			"type":"VEC2"
		},
		{
			"bufferView":35,
			"componentType":5123,
			"count":6,
			"type":"SCALAR"
		},
		{
			"bufferView":36,
			"componentType":5126,
			"count":48,
			"max":[
				1,
				0,
				0.7874675393104553
			],
			"min":[
				-1,
				0,
				-0.859512448310852
			],
			"type":"VEC3"
		},
		{
			"bufferView":37,
			"componentType":5126,
			"count":48,
			"type":"VEC3"
		},
		{
			"bufferView":38,
			"componentType":5123,
			"count":138,
			"type":"SCALAR"
		},
		{
			"bufferView":39,
			"componentType":5126,
			"count":158,
			"max":[
				-11.232233047485352,
				0.8684639930725098,
				1.8402557373046875
			],
			"min":[
				-23.945634841918945,
				-0.752751350402832,
				-1.8402557373046875
			],
			"type":"VEC3"
		},
		{
			"bufferView":40,
			"componentType":5126,
			"count":158,
			"type":"VEC3"
		},
		{
			"bufferView":41,
			"componentType":5126,
			"count":158,
			"type":"VEC2"
		},
		{
			"bufferView":42,
			"componentType":5123,
			"count":306,
			"type":"SCALAR"
		},
		{
			"bufferView":43,
			"componentType":5126,
			"count":528,
			"max":[
				-11.548550605773926,
				0.07429438829421997,
				0.6570402383804321
			],
			"min":[
				-23.588932037353516,
				-0.629311740398407,
				-0.12511342763900757
			],
			"type":"VEC3"
		},
		{
			"bufferView":44,
			"componentType":5126,
			"count":528,
			"type":"VEC3"
		},
		{
			"bufferView":45,
			"componentType":5126,
			"count":528,
			"type":"VEC2"
		},
		{
			"bufferView":46,
			"componentType":5123,
			"count":1008,
			"type":"SCALAR"
		},
		{
			"bufferView":47,
			"componentType":5126,
			"count":158,
			"max":[
				-11.232233047485352,
				0.8684639930725098,
				1.8402557373046875
			],
			"min":[
				-23.945634841918945,
				-0.752751350402832,
				-1.8402557373046875
			],
			"type":"VEC3"
		},
		{
			"bufferView":48,
			"componentType":5126,
			"count":158,
			"type":"VEC3"
		},
		{
			"bufferView":49,
			"componentType":5126,
			"count":158,
			"type":"VEC2"
		},
		{
			"bufferView":50,
			"componentType":5126,
			"count":528,
			"max":[
				-11.548550605773926,
				0.07429438829421997,
				0.6570402383804321
			],
			"min":[
				-23.588932037353516,
				-0.629311740398407,
				-0.12511342763900757
			],
			"type":"VEC3"
		},
		{
			"bufferView":51,
			"componentType":5126,
			"count":528,
			"type":"VEC3"
		},
		{
			"bufferView":52,
			"componentType":5126,
			"count":528,
			"type":"VEC2"
		}
	],
	"bufferViews":[
		{
			"buffer":0,
			"byteLength":278784,
			"byteOffset":0,
			"target":34962
		},
		{
			"buffer":0,
			"byteLength":278784,
			"byteOffset":278784,
			"target":34962
		},
		{
			"buffer":0,
			"byteLength":185856,
			"byteOffset":557568,
			"target":34962
		},
		{
			"buffer":0,
			"byteLength":69696,
			"byteOffset":743424,
			"target":34963
		},
		{
			"buffer":0,
			"byteLength":5280132,
			"byteOffset":813120,
			"target":34962
		},
		{
			"buffer":0,
			"byteLength":5280132,
			"byteOffset":6093252,
			"target":34962
		},
		{
			"buffer":0,
			"byteLength":3520088,
			"byteOffset":11373384,
			"target":34962
		},
		{
			"buffer":0,
			"byteLength":3254208,
			"byteOffset":14893472,
			"target":34963
		},
		{
			"buffer":0,
			"byteLength":921072,
			"byteOffset":18147680,
			"target":34962
		},
		{
			"buffer":0,
			"byteLength":921072,
			"byteOffset":19068752,
			"target":34962
		},
		{
			"buffer":0,
			"byteLength":614048,
			"byteOffset":19989824,
			"target":34962
		},
		{
			"buffer":0,
			"byteLength":517548,
			"byteOffset":20603872,
			"target":34963
		},
		{
			"buffer":0,
			"byteLength":4333200,
			"byteOffset":21121420,
			"target":34962
		},
		{
			"buffer":0,
			"byteLength":4333200,
			"byteOffset":25454620,
			"target":34962
		},
		{
			"buffer":0,
			"byteLength":2888800,
			"byteOffset":29787820,
			"target":34962
		},
		{
			"buffer":0,
			"byteLength":2244000,
			"byteOffset":32676620,
			"target":34963
		},
		{
			"buffer":0,
			"byteLength":128928,
			"byteOffset":34920620,
			"target":34962
		},
		{
			"buffer":0,
			"byteLength":128928,
			"byteOffset":35049548,
			"target":34962
		},
		{
			"buffer":0,
			"byteLength":85952,
			"byteOffset":35178476,
			"target":34962
		},
		{
			"buffer":0,
			"byteLength":32232,
			"byteOffset":35264428,
			"target":34963
		},
		{
			"buffer":0,
			"byteLength":288,
			"byteOffset":35296660,
			"target":34962
		},
		{
			"buffer":0,
			"byteLength":288,
			"byteOffset":35296948,
			"target":34962
		},
		{
			"buffer":0,
			"byteLength":192,
			"byteOffset":35297236,
			"target":34962
		},
		{
			"buffer":0,
			"byteLength":72,
			"byteOffset":35297428,
			"target":34963
		},
		{
			"buffer":0,
			"byteLength":385632,
			"byteOffset":35297500,
			"target":34962
		},
		{
			"buffer":0,
			"byteLength":385632,
			"byteOffset":35683132,
			"target":34962
		},
		{
			"buffer":0,
			"byteLength":257088,
			"byteOffset":36068764,
			"target":34962
		},
		{
			"buffer":0,
			"byteLength":123072,
			"byteOffset":36325852,
			"target":34963
		},
		{
			"buffer":0,
			"byteLength":394548,
			"byteOffset":36448924,
			"target":34962
		},
		{
			"buffer":0,
			"byteLength":394548,
			"byteOffset":36843472,
			"target":34962
		},
		{
			"buffer":0,
			"byteLength":263032,
			"byteOffset":37238020,
			"target":34962
		},
		{
			"buffer":0,
			"byteLength":123072,
			"byteOffset":37501052,
			"target":34963
		},
		{
			"buffer":0,
			"byteLength":48,
			"byteOffset":37624124,
			"target":34962
		},
		{
			"buffer":0,
			"byteLength":48,
			"byteOffset":37624172,
			"target":34962
		},
		{
			"buffer":0,
			"byteLength":32,
			"byteOffset":37624220,
			"target":34962
		},
		{
			"buffer":0,
			"byteLength":12,
			"byteOffset":37624252,
			"target":34963
		},
		{
			"buffer":0,
			"byteLength":576,
			"byteOffset":37624264,
			"target":34962
		},
		{
			"buffer":0,
			"byteLength":576,
			"byteOffset":37624840,
			"target":34962
		},
		{
			"buffer":0,
			"byteLength":276,
			"byteOffset":37625416,
			"target":34963
		},
		{
			"buffer":0,
			"byteLength":1896,
			"byteOffset":37625692,
			"target":34962
		},
		{
			"buffer":0,
			"byteLength":1896,
			"byteOffset":37627588,
			"target":34962
		},
		{
			"buffer":0,
			"byteLength":1264,
			"byteOffset":37629484,
			"target":34962
		},
		{
			"buffer":0,
			"byteLength":612,
			"byteOffset":37630748,
			"target":34963
		},
		{
			"buffer":0,
			"byteLength":6336,
			"byteOffset":37631360,
			"target":34962
		},
		{
			"buffer":0,
			"byteLength":6336,
			"byteOffset":37637696,
			"target":34962
		},
		{
			"buffer":0,
			"byteLength":4224,
			"byteOffset":37644032,
			"target":34962
		},
		{
			"buffer":0,
			"byteLength":2016,
			"byteOffset":37648256,
			"target":34963
		},
		{
			"buffer":0,
			"byteLength":1896,
			"byteOffset":37650272,
			"target":34962
		},
		{
			"buffer":0,
			"byteLength":1896,
			"byteOffset":37652168,
			"target":34962
		},
		{
			"buffer":0,
			"byteLength":1264,
			"byteOffset":37654064,
			"target":34962
		},
		{
			"buffer":0,
			"byteLength":6336,
			"byteOffset":37655328,
			"target":34962
		},
		{
			"buffer":0,
			"byteLength":6336,
			"byteOffset":37661664,
			"target":34962
		},
		{
			"buffer":0,
			"byteLength":4224,
			"byteOffset":37668000,
			"target":34962
		}
	],
	"samplers":[
		{
			"magFilter":9729,
			"minFilter":9987
		}
	],
	"buffers":[
		{
			"byteLength":37672224,
			"uri":"web_stadion_v2.bin"
		}
	]
}
